<?xml version="1.0" encoding="UTF-8" standalone="no"?>
<svg
   xmlns:dc="http://purl.org/dc/elements/1.1/"
   xmlns:cc="http://creativecommons.org/ns#"
   xmlns:rdf="http://www.w3.org/1999/02/22-rdf-syntax-ns#"
   xmlns:svg="http://www.w3.org/2000/svg"
   xmlns="http://www.w3.org/2000/svg"
   xmlns:xlink="http://www.w3.org/1999/xlink"
   xmlns:sodipodi="http://sodipodi.sourceforge.net/DTD/sodipodi-0.dtd"
   xmlns:inkscape="http://www.inkscape.org/namespaces/inkscape"
   width="64"
   height="64"
   version="1.1"
   id="svg22"
   sodipodi:docname="selfsecurity.svg"
   inkscape:version="1.0.1 (3bc2e813f5, 2020-09-07)">
  <metadata
     id="metadata26">
    <rdf:RDF>
      <cc:Work
         rdf:about="">
        <dc:format>image/svg+xml</dc:format>
        <dc:type
           rdf:resource="http://purl.org/dc/dcmitype/StillImage" />
        <dc:title />
      </cc:Work>
    </rdf:RDF>
  </metadata>
  <sodipodi:namedview
     pagecolor="#ffffff"
     bordercolor="#666666"
     borderopacity="1"
     objecttolerance="10"
     gridtolerance="10"
     guidetolerance="10"
     inkscape:pageopacity="0"
     inkscape:pageshadow="2"
     inkscape:window-width="2560"
     inkscape:window-height="1367"
     id="namedview24"
     showgrid="false"
     inkscape:zoom="15.799417"
     inkscape:cx="3.7812446"
     inkscape:cy="32.686315"
     inkscape:window-x="2560"
     inkscape:window-y="0"
     inkscape:window-maximized="1"
     inkscape:current-layer="g1223"
     inkscape:document-rotation="0"
     inkscape:snap-bbox="false" />
  <defs
     id="defs14">
    <linearGradient
       xlink:href="#a"
       id="c"
       y1="6"
       x1="32"
       y2="57"
       x2="31"
       gradientUnits="userSpaceOnUse" />
    <linearGradient
       id="b">
      <stop
         stop-color="#bcfd93"
         id="stop3" />
      <stop
         offset="1"
         stop-color="#fafff5"
         id="stop5" />
    </linearGradient>
    <linearGradient
       id="a">
      <stop
         stop-color="#42a603"
         id="stop8" />
      <stop
         offset="1"
         stop-color="#78da06"
         id="stop10" />
    </linearGradient>
    <linearGradient
       xlink:href="#b"
       id="d"
       y1="199.934"
       y2="175.934"
       x2="0"
       gradientUnits="userSpaceOnUse" />
    <linearGradient
       id="a-5"
       gradientUnits="userSpaceOnUse"
       x1="22"
       x2="22"
       y1="30"
       y2="23"
       gradientTransform="matrix(2,0,0,2,-16,16)">
      <stop
         offset="0"
         stop-color="#82868d"
         id="stop2" />
      <stop
         offset="1"
         stop-color="#d9dada"
         id="stop4" />
    </linearGradient>
    <linearGradient
       id="b-3"
       gradientTransform="matrix(2,0,0,1.95215,-16,17.197)"
       gradientUnits="userSpaceOnUse"
       x1="16"
       x2="16"
       y1="26"
       y2="1.4119999">
      <stop
         offset="0"
         stop-color="#f79f06"
         id="stop7" />
      <stop
         offset=".043"
         stop-color="#eeab32"
         id="stop9" />
      <stop
         offset=".167"
         stop-color="#e18f00"
         id="stop11" />
      <stop
         offset=".801"
         stop-color="#f8c468"
         id="stop13" />
      <stop
         offset="1"
         stop-color="#ffc35a"
         id="stop15" />
    </linearGradient>
  </defs>
  <g
     id="g1072"
     transform="matrix(0.07508469,0,0,0.07508469,28.787426,40.462215)"
     style="stroke-width:0.998872;stroke-miterlimit:4;stroke-dasharray:none">
    <g
       id="g6"
       transform="matrix(0.75,0,0,0.75,-149.21399,-199.88034)"
       style="fill:#d72a2a;fill-opacity:1;stroke-width:0.998872;stroke-miterlimit:4;stroke-dasharray:none">
      <g
         id="g4"
         style="fill:#d72a2a;fill-opacity:1;stroke-width:0.998872;stroke-miterlimit:4;stroke-dasharray:none" />
    </g>
    <g
       id="g24"
       transform="translate(-213.21399,-230.57902)"
       style="stroke-width:0.998872;stroke-miterlimit:4;stroke-dasharray:none" />
  </g>
  <g
     id="g1223"
     transform="matrix(1.537735,0,0,1.537735,-17.138827,-31.99652)">
    <path
       id="path2"
       style="fill:#d72a2a;fill-opacity:1;stroke:#dae1e4;stroke-width:0.3;stroke-miterlimit:4;stroke-dasharray:none;stroke-opacity:1"
       d="m 32.068359,17.370971 c -5.500627,0 -11.240356,5.741683 -11.240356,11.24231 v 8.078003 c -1.102013,0 -2.628907,2.790689 -2.628907,3.8927 v 1.996094 c 0,1.102012 1.488378,3.892701 2.59039,3.892701 h 22.5597 c 1.10201,0 2.588437,-2.790689 2.588437,-3.892701 v -1.996094 c 0,-1.101933 -1.524944,-3.8927 -2.626954,-3.8927 v -8.078003 c 0,-5.500627 -5.741682,-11.24231 -11.24231,-11.24231 z m 0,3.933717 c 3.350416,0.02716 7.347657,2.267814 7.347657,6.675781 v 8.710815 h -5.789063 v -3.478393 c 1.118007,-0.615276 1.81253,-1.790279 1.8125,-3.066407 0,-1.932997 -1.567003,-3.5 -3.5,-3.5 -1.932997,0 -3.5,1.567003 -3.5,3.5 -3.58e-4,1.325576 0.748182,2.537606 1.933594,3.13086 v 3.41394 h -5.652344 v -8.078003 c 0,-4.407968 3.883495,-7.313526 7.347656,-7.308593 z M 22.09375,40.583984 h 19.951172 v 1.996094 H 22.09375 Z"
       transform="matrix(0.65030711,0,0,0.65030711,11.145501,20.807564)"
       sodipodi:nodetypes="sscsssssscsscsccccsccccscccccc" />
    <g
       id="g1533"
       transform="translate(2.5971467,-0.12765735)">
      <path
         d="m 18.06885,35.085254 c -1.723964,1.801351 -2.664308,4.152211 -2.664308,6.659795 0,2.507584 0.940344,4.857794 2.663658,6.659795 l -1.370848,1.371498 a 11.553356,11.553356 0 0 1 -3.251535,-8.031293 c 0,-3.016775 1.136086,-5.876825 3.251535,-8.031293 l 1.370848,1.371498"
         fill="#6bc305"
         id="path2-3"
         style="stroke-width:0.650307" />
      <path
         d="m 13.641559,41.745049 c 0,-2.899069 1.097068,-5.641414 3.055793,-7.756863 l 1.097068,1.097068 a 9.8033796,9.8033796 0 0 0 -2.586921,6.659795 c 0,2.467916 0.901325,4.818776 2.586271,6.659795 l -1.097068,1.097068 c -1.958725,-2.115449 -3.056443,-4.857794 -3.056443,-7.756863 m -0.391485,0 c 0,3.016775 1.136086,6.033549 3.447928,8.305723 l 1.645277,-1.645277 c -1.841019,-1.84167 -2.741695,-4.232199 -2.741695,-6.660446 0,-2.428897 0.900676,-4.818776 2.742345,-6.659795 l -1.645277,-1.645277 c -2.311841,2.270872 -3.447928,5.287647 -3.447928,8.305072 z"
         fill="#569c04"
         id="path4"
         style="stroke-width:0.650307" />
      <path
         d="m 14.738627,31.755031 c -2.586271,2.703327 -4.035806,6.229292 -4.035806,9.990018 0,3.760726 1.450185,7.286691 4.035806,9.990018 L 13.36713,53.106565 A 16.19915,16.19915 0 0 1 8.7440962,41.745049 16.19915,16.19915 0 0 1 13.36713,30.384184 l 1.371497,1.370847"
         fill="#6bc305"
         id="path6"
         style="stroke-width:0.650307" />
      <path
         d="m 8.9398392,41.745049 c 0,-4.152861 1.5672398,-8.070311 4.4272908,-11.087086 l 1.097068,1.097068 c -2.547253,2.742345 -3.957119,6.268311 -3.957119,9.990018 0,3.721708 1.410516,7.247673 3.957119,9.950999 L 13.36713,52.793117 C 10.507079,49.81536 8.9398392,45.89791 8.9398392,41.745049 m -0.391485,0 c 0,4.230898 1.6062588,8.422778 4.8187758,11.635295 l 1.645277,-1.645277 c -2.742345,-2.742345 -4.113193,-6.346997 -4.113193,-9.990018 0,-3.643671 1.370848,-7.208654 4.113193,-9.990018 L 13.36713,30.109754 A 16.437162,16.437162 0 0 0 8.5483542,41.745049 Z"
         fill="#569c04"
         id="path8"
         style="stroke-width:0.650307" />
      <g
         id="g18"
         transform="matrix(0.65030711,0,0,0.65030711,8.5483542,20.935222)">
        <path
           d="m 49.36,42.241 c 2.651,-2.77 4.097,-6.385 4.097,-10.241 0,-3.856 -1.446,-7.47 -4.096,-10.241 l 2.108,-2.109 c 3.193,3.313 5,7.711 5,12.35 0,4.639 -1.747,9.037 -5,12.35 l -2.108,-2.109"
           fill="#6bc305"
           id="path10" />
        <path
           d="m 56.168,32 c 0,4.458 -1.687,8.675 -4.699,11.928 L 49.782,42.241 A 15.075,15.075 0 0 0 53.76,32 c 0,-3.795 -1.386,-7.41 -3.977,-10.241 l 1.687,-1.687 c 3.012,3.253 4.7,7.47 4.7,11.928 m 0.602,0 c 0,-4.639 -1.747,-9.278 -5.302,-12.772 l -2.53,2.53 c 2.832,2.832 4.217,6.507 4.217,10.242 0,3.735 -1.385,7.41 -4.217,10.241 l 2.53,2.53 C 55.025,41.278 56.772,36.639 56.772,32 Z"
           fill="#569c04"
           id="path12" />
        <path
           d="m 54.481,47.362 c 3.977,-4.157 6.206,-9.579 6.206,-15.362 0,-5.783 -2.23,-11.205 -6.206,-15.362 L 56.59,14.529 A 24.91,24.91 0 0 1 63.699,32 24.91,24.91 0 0 1 56.59,49.47 l -2.109,-2.108"
           fill="#6bc305"
           id="path14" />
        <path
           d="m 63.398,32 c 0,6.386 -2.41,12.41 -6.808,17.049 l -1.687,-1.687 c 3.916,-4.217 6.085,-9.639 6.085,-15.362 0,-5.723 -2.169,-11.145 -6.085,-15.302 L 56.59,15.011 C 60.988,19.59 63.398,25.614 63.398,32 M 64,32 C 64,25.494 61.53,19.048 56.59,14.108 l -2.53,2.53 c 4.217,4.217 6.325,9.76 6.325,15.362 0,5.603 -2.108,11.085 -6.325,15.362 l 2.53,2.53 A 25.276,25.276 0 0 0 64,32 Z"
           fill="#569c04"
           id="path16" />
      </g>
    </g>
  </g>
</svg>
