<svg width="64" height="64" version="1.1" viewBox="0 0 16.933 16.933" xmlns="http://www.w3.org/2000/svg">
 <g transform="matrix(.032564 0 0 .032564 -6.5892 5.8177)" stroke="#f00">
  <path transform="scale(.26458)" d="m1769.5-662.06c-22.234 0-41.521 12.124-51.674 30.141-24.203 7.4638-41.695 29.944-41.695 56.66v760.33c0 32.85 26.446 59.297 59.297 59.297h23.773c32.85 0 59.297-26.447 59.297-59.297v-724.67h71.779c32.851 0 59.297-26.446 59.297-59.297v-3.8652c0-32.851-26.446-59.297-59.297-59.297z" fill="#ccd1d9" stroke-width=".0080994"/>
  <rect transform="rotate(-.12545)" x="318.03" y="215.91" width="288.4" height="118.62" ry="17.702" fill="#656d78" stroke-width=".0022796"/>
  <rect x="321.05" y="63.762" width="282.67" height="154.91" fill="#5d9cec" stroke-width=".0020078"/>
 </g>
 <path d="m4.4158 16.9c-0.52047-0.089756-0.94651-0.55115-1.0313-1.1169-0.022726-0.15167-0.029965-0.72663-0.020962-1.6648l0.013753-1.4332 0.51135-5.3271c0.28124-2.9299 0.52125-5.3509 0.53337-5.3805 0.050038-0.12145 0.14541-0.12856 1.7261-0.12856h1.5449l0.014718-0.50458c0.018308-0.62767 0.058498-0.76021 0.30928-1.0199 0.27512-0.28487 0.35264-0.30486 1.2437-0.32062 0.80316-0.01421 0.89554-2.6051e-4 0.9594 0.14489 0.04712 0.10709 0.04762 0.9099 6.22e-4 1.0167-0.05576 0.12673-0.16041 0.1541-0.58912 0.1541h-0.39793v0.52939h1.5483c1.5842 0 1.6795 0.00708 1.7295 0.12856 0.01211 0.029382 0.2521 2.4506 0.5333 5.3805l0.51129 5.3271 0.01382 1.4332c9e-3 0.93853 0.0018 1.5131-0.0209 1.6648-0.08713 0.5815-0.50865 1.0263-1.0604 1.119-0.25246 0.04242-7.8261 0.04041-8.0726-0.0021zm8.2866-0.60927c0.09689-0.06203 0.19321-0.16175 0.25312-0.26205l0.09671-0.16191 0.018-2.6357h-9.2048v1.2749c0 1.3755 0.00116 1.3861 0.17584 1.6233 0.0429 0.05824 0.15345 0.14482 0.24566 0.1924l0.16766 0.08651 8.0915-0.01729zm-4.4929-0.45583c-0.28899-0.0846-0.55111-0.31866-0.6743-0.60211-0.10013-0.2304-0.10017-0.5966-9.77e-5 -0.82719 0.09396-0.21647 0.32567-0.45746 0.52923-0.55043 0.24611-0.11238 0.58452-0.10668 0.82247 0.01386 0.21171 0.10725 0.42154 0.3303 0.5149 0.54727 0.10205 0.23721 0.093765 0.6026-0.019088 0.84142-0.10031 0.2123-0.31801 0.43346-0.51591 0.52408-0.18131 0.08305-0.47403 0.10666-0.65724 0.05303zm0.51272-0.55636c0.33961-0.19764 0.33587-0.72318-0.0066-0.92247-0.25209-0.14671-0.59227-0.0421-0.71188 0.21892-0.070309 0.15342-0.053434 0.42841 0.033756 0.55014 0.15557 0.21718 0.45853 0.28507 0.68472 0.15343zm-3.4703-0.2721c-0.062158-0.05536-0.086991-0.10881-0.086991-0.18722 0-0.11355 0.12484-0.2647 0.21863-0.2647 0.093263 0 0.20453 0.07834 0.24109 0.16973 0.048794 0.12198-0.00476 0.26923-0.11722 0.32229-0.11411 0.05383-0.15773 0.04699-0.25551-0.0401zm1.0225 0c-0.062158-0.05536-0.086991-0.10881-0.086991-0.18722 0-0.11355 0.12484-0.2647 0.21863-0.2647 0.25159 0 0.35873 0.36452 0.14136 0.4809-0.12385 0.06632-0.17168 0.06123-0.273-0.02901zm4.1011 0.01149c-0.0682-0.05554-0.08737-0.09915-0.08737-0.19871 0-0.24156 0.2751-0.34661 0.4234-0.16167 0.18338 0.22871-0.11059 0.54398-0.33603 0.36038zm1.0949 0.04321c-0.1675-0.06618-0.22082-0.30679-0.09427-0.42538 0.1555-0.14572 0.41382-0.03119 0.41382 0.18347 0 0.16349-0.17764 0.29797-0.31954 0.24191zm1.5657-2.4571c0-0.16582-0.41239-4.4548-0.43392-4.513-0.03102-0.083712-0.05834-0.068997-0.2273 0.12242-0.28281 0.32041-0.36136 0.32191-0.64988 0.012396l-0.19211-0.20609-0.17021 0.1864c-0.30017 0.32873-0.37019 0.33082-0.6602 0.019687l-0.19211-0.20609-0.17021 0.1864c-0.30019 0.32873-0.37042 0.33082-0.65968 0.019687l-0.19159-0.20609-0.20349 0.22334c-0.16849 0.18493-0.22101 0.22334-0.30532 0.22334-0.0841 0-0.13766-0.038894-0.30756-0.22334l-0.20572-0.22334-0.20371 0.22334c-0.16863 0.18488-0.22124 0.22334-0.30554 0.22334-0.084116 0-0.1376-0.038859-0.30739-0.22334l-0.20556-0.22334-0.19165 0.20609c-0.28934 0.31115-0.35954 0.30905-0.65975-0.019687l-0.17021-0.1864-0.19211 0.20609c-0.29002 0.31112-0.36003 0.30903-0.6602-0.019687l-0.17021-0.1864-0.19211 0.20609c-0.28853 0.30951-0.36709 0.30802-0.64988-0.012396-0.16961-0.19217-0.19622-0.20627-0.2279-0.12079-0.02172 0.058609-0.4333 4.346-0.4333 4.5137v0.09532h9.1388zm-7.9665-4.9435c0.28283-0.32044 0.36169-0.32194 0.6492-0.012396l0.19143 0.20609 0.19143-0.20609c0.28902-0.31116 0.35931-0.30906 0.65952 0.019687l0.17021 0.1864 0.19211-0.20609c0.10566-0.11335 0.22665-0.21506 0.26885-0.22603 0.082768-0.02151 0.25884 0.055694 0.28592 0.12536 0.00899 0.02313 0.017476-1.1305 0.018864-2.5636l0.00252-2.6056h-2.84l-0.018662 0.14062c-0.010264 0.07734-0.11151 1.1382-0.22499 2.3575-0.11348 1.2193-0.21478 2.2847-0.22511 2.3677-0.017392 0.13969-0.012497 0.1538 0.066222 0.19094 0.046752 0.022057 0.15701 0.12169 0.24502 0.2214 0.088008 0.099711 0.17151 0.18129 0.18556 0.18129 0.014047 0 0.095901-0.079717 0.1819-0.17715zm5.1125 0c0.28283-0.32044 0.36169-0.32194 0.6492-0.012396l0.19143 0.20609 0.19143-0.20609c0.28902-0.31116 0.35931-0.30906 0.65952 0.019687l0.17021 0.1864 0.18998-0.20377c0.10449-0.11207 0.221-0.21396 0.25891-0.22642 0.0616-0.020242 0.06688-0.039047 0.04972-0.17673-0.010571-0.084744-0.11206-1.1517-0.22555-2.3709-0.11348-1.2193-0.21473-2.2801-0.22499-2.3575l-0.018662-0.14062h-2.84v2.5973c0 2.5862 2.605e-4 2.597 0.063096 2.532 0.085148-0.088167 0.20293-0.11438 0.29204-0.064998 0.040425 0.022403 0.14386 0.12045 0.22986 0.21788 0.085998 0.097431 0.16785 0.17715 0.1819 0.17715 0.01405 0 0.0959-0.079717 0.1819-0.17715zm-1.8372-0.20674c0.11147-0.059687 0.22281-0.040591 0.31402 0.053861 0.062822 0.065053 0.063096 0.05418 0.063096-2.532v-2.5973h-0.51125l0.00252 2.6056c0.00139 1.4331 0.00988 2.5867 0.018864 2.5636 0.00899-0.02312 0.059729-0.065288 0.11276-0.093683zm0.37712-6.0169c0-0.44391 0.026435-0.55229 0.14882-0.61002 0.04375-0.02064 0.25221-0.036736 0.47579-0.036736h0.39793v-0.2647h-0.57645c-0.51467 0-0.58996 0.007139-0.70257 0.066619-0.2126 0.1123-0.25479 0.24351-0.25479 0.79231v0.46453h0.51125zm1.9492-0.1586c-0.12105-0.065789-0.17357-0.2012-0.12157-0.31348 0.06749-0.14574 0.16592-0.17793 0.5122-0.16749 0.27039 0.008146 0.31982 0.018787 0.38077 0.08197 0.04207 0.0436 0.07006 0.11373 0.07006 0.17555 0 0.061813-0.02799 0.13195-0.07006 0.17555-0.06096 0.063181-0.1104 0.073823-0.38077 0.08197-0.21044 0.00634-0.33652-0.00465-0.3906-0.034055zm0-0.79411c-0.12105-0.065789-0.17357-0.2012-0.12157-0.31348 0.06749-0.14574 0.16592-0.17793 0.5122-0.16749 0.27039 0.0081459 0.31982 0.018787 0.38077 0.08197 0.04207 0.0436 0.07006 0.11373 0.07006 0.17555 0 0.061813-0.02799 0.13195-0.07006 0.17555-0.06096 0.063181-0.1104 0.073823-0.38077 0.08197-0.21044 0.00634-0.33652-0.004651-0.3906-0.034055z" fill="#9b9c9e" stroke-width=".032516"/>
</svg>
