<svg width="64" height="64" version="1.1" xmlns="http://www.w3.org/2000/svg"><g transform="matrix(1.5377,0,0,1.5377,-17.139,-31.997)"><g transform="translate(-122.25,25.222)"><g transform="matrix(2.327,0,0,2.327,-9.1286,-117.23)"><g transform="matrix(1.0744,0,0,1.0744,-5.2177,-4.5629)"><path transform="matrix(.8 0 0 .8 46.06 23.804)" d="m21.708 33.587c-1.0695 0-1.9509 0.88147-1.9509 1.9509v10.405c0 1.0694 0.88147 1.9509 1.9509 1.9509h1.9509v3.2515l4.3362-3.2515h10.621c1.0694 0 1.9509-0.88147 1.9509-1.9509v-10.405c0-1.0694-0.88147-1.9509-1.9509-1.9509zm0 1.3006h16.908c0.36833 0 0.65031 0.28197 0.65031 0.65031v10.405c0 0.36834-0.28197 0.65031-0.65031 0.65031h-11.055l-2.6012 1.9509v-1.9509h-3.2515c-0.36834 0-0.65031-0.28197-0.65031-0.65031v-10.405c0-0.36834 0.28197-0.65031 0.65031-0.65031z" fill="#9b9c9e" stroke-width=".65031"/><path d="m67.722 54.836h0.65462v3.2731h-0.65462zm-1.3092 0.98193h0.65462v1.3092h-0.65462zm2.6185-2.6185h0.65462v5.8916h-0.65462zm1.3092 0.65462h0.65462v5.8916h-0.65462zm1.3092 0.98193h0.65462v3.2731h-0.65462zm1.3092 0.98193h0.65462v1.3092h-0.65462z" fill="#6bc305" stroke="#569c04" stroke-width=".22761"/></g></g></g></g></svg>
