<svg id="root" width="64" height="64" version="1.1" viewBox="0 0 64 64" xml:space="preserve" xmlns="http://www.w3.org/2000/svg">
  <g transform="matrix(.50076 0 0 .50076 -8.4799 -28.099)" stroke="#808080">
    <g transform="translate(-59.22,38.929)" fill="none" stroke="#808080">
      
        <g stroke-width="3.5">
          <path d="m77.742 32.692 17.992-13.758h42.333l17.992 13.758"/>
          <path d="m78.8 31.634h76.2"/>
          <path d="m114.78 18.934-33.867 123.83"/>
          <path d="m118.49 18.934 33.867 123.83"/>
        </g>
        <path d="m76.154 142.49h10.054" stroke-width="5"/>
        <path d="m147.59 142.49h10.054" stroke-width="5"/>
      
      <path d="m80.917 32.692v10.583" stroke-linecap="round" stroke-width="3.5"/>
      <path d="m152.88 32.692v10.583" stroke-linecap="round" stroke-width="3.5"/>
      
        <g stroke-width="3">
          <path d="m76.154 35.867h10.583"/>
          <path d="m76.154 40.101h10.583"/>
          <path d="m147.06 35.867h10.583"/>
          <path d="m147.06 40.101h10.583"/>
        </g>
        <path d="m97.585 53.33h38.365" stroke-width="3.5"/>
        <path d="m88.325 91.959h57.15" stroke-width="4.2718"/>
        <g stroke-width="3.5">
          <path d="m112.67 32.692 12.7 20.108"/>
          <path d="m121.13 32.692-12.7 20.108"/>
          <path d="m105.26 53.859 32.808 38.1"/>
          <path d="m128.54 53.859-32.808 38.1"/>
          <path d="m96.792 93.017 50.8 32.808"/>
          <path d="m136.48 93.017-50.8 32.808"/>
        </g>
    </g>
  </g>
<path d="m63.625 32.002a0.5775 0.5775 0 0 1-0.17025 0.40875l-11.1 10.475a0.573 0.573 0 0 1-0.636 0.1275 0.5745 0.5745 0 0 1-0.3585-0.53625v-3.5325c0-0.5325-0.432-0.9645-0.9645-0.9645h-7.71a0.5775 0.5775 0 0 1-0.5775-0.579v-10.799a0.5775 0.5775 0 0 1 0.5775-0.5775h7.7138c0.5325 0 0.9645-0.43275 0.9645-0.9645v-3.5378a0.5745 0.5745 0 0 1 0.3585-0.53625 0.56025 0.56025 0 0 1 0.6285 0.1275l11.108 10.483a0.55875 0.55875 0 0 1 0.1665 0.405" fill="#6bc305" stroke="#569c04" stroke-width=".75"/></svg>
