<svg width="64" height="64" version="1.1" xmlns="http://www.w3.org/2000/svg"><g transform="matrix(1.5377,0,0,1.5377,-17.139,-31.997)"><g transform="translate(1.614 -.14241)"><path transform="matrix(.65032 0 0 .65032 9.5319 20.951)" d="m13.607 0c-2.75 0-5 2.2501-5 5v53.998c0 2.75 2.2501 5 5 5h29.998c2.7499 0 5-2.25 5-5v-10.076h-2v3.0762h-35.998v-41.998h35.998v19.365h2v-24.365c0-2.7499-2.2501-5-5-5zm0 2h29.998c1.668 0 3 1.332 3 3v3h-35.998v-3c0-1.668 1.332-3 3-3zm6.9492 2c-0.55077 0-1 0.44923-1 1-0.0039 0.55077 0.44532 1 0.99609 1 0.26562 0.0039 0.51954-0.10157 0.70703-0.28906 0.1875-0.1875 0.29688-0.44531 0.29688-0.71094 0-0.55077-0.44923-0.99609-1-1zm4.0508 0c-0.35937-0.0039-0.69531 0.1836-0.87891 0.49609-0.17969 0.31249-0.17969 0.69533 0 1.0078 0.18359 0.31249 0.51953 0.5 0.87891 0.49609h8c0.35937 0.0039 0.69531-0.1836 0.87891-0.49609 0.17969-0.31249 0.17969-0.69533 0-1.0078-0.18359-0.31249-0.51953-0.5-0.87891-0.49609zm-14 49.998h35.998v5c0 1.668-1.332 3-3 3h-29.998c-1.668 0-3-1.332-3-3zm18 2c-1.1055 0-2 0.89455-2 2s0.89455 2 2 2 2-0.89455 2-2-0.89455-2-2-2z" fill="#9b9c9e" stroke-width=".99998"/><g transform="matrix(.8 0 0 .8 -2.3287 5.0283)"><g transform="translate(4.7907,-3.924)"><path transform="matrix(.65031 0 0 .65031 14.897 12.812)" d="m13.231 30.796c-1.6445 0-3 1.3555-3 3v16c0 1.6445 1.3555 3 3 3h3v5l6.668-5h16.332c1.6445 0 3-1.3555 3-3v-16c0-1.6445-1.3555-3-3-3zm0 2h26c0.5664 0 1 0.43359 1 1v16c0 0.56641-0.4336 1-1 1h-17l-4 3v-3h-5c-0.56641 0-1-0.43359-1-1v-16c0-0.56641 0.43359-1 1-1z" fill="#9b9c9e"/><path d="m31.935 36.254c-1.4308 0-2.9239 1.4935-2.9239 2.9244v2.1013c-0.28666 0-0.68384 0.72592-0.68384 1.0126v0.51923c0 0.28666 0.38716 1.0126 0.67382 1.0126h5.8683c0.28666 0 0.67331-0.72592 0.67331-1.0126v-0.51923c0-0.28664-0.39667-1.0126-0.68333-1.0126v-2.1013c0-1.4308-1.4935-2.9244-2.9244-2.9244zm0 1.0232c0.87152 7e-3 1.9113 0.58991 1.9113 1.7365v2.2659h-1.5059v-0.90481c0.29082-0.16005 0.47148-0.46569 0.47147-0.79764 0-0.50282-0.40761-0.91043-0.91043-0.91043s-0.91043 0.40761-0.91043 0.91043c-9.3e-5 0.34481 0.19462 0.66009 0.50297 0.81441v0.88804h-1.4703v-2.1013c0-1.1466 1.0102-1.9024 1.9113-1.9011zm-2.5946 5.015h5.1898v0.51923h-5.1898z" fill="#d72a2a" stroke="#dae1e4" stroke-width=".078037"/></g></g><g transform="translate(-33.579,-10.021)"><g transform="matrix(.8 0 0 .8 42.227 26.943)"><g transform="translate(4.7907,-3.924)"><path d="m21.708 33.587c-1.0695 0-1.9509 0.88147-1.9509 1.9509v10.405c0 1.0694 0.88147 1.9509 1.9509 1.9509h1.9509v3.2515l4.3362-3.2515h10.621c1.0694 0 1.9509-0.88147 1.9509-1.9509v-10.405c0-1.0694-0.88147-1.9509-1.9509-1.9509zm0 1.3006h16.908c0.36833 0 0.65031 0.28197 0.65031 0.65031v10.405c0 0.36834-0.28197 0.65031-0.65031 0.65031h-11.055l-2.6012 1.9509v-1.9509h-3.2515c-0.36834 0-0.65031-0.28197-0.65031-0.65031v-10.405c0-0.36834 0.28197-0.65031 0.65031-0.65031z" fill="#9b9c9e" stroke-width=".65031"/></g></g><path d="m67.722 54.836h0.65462v3.2731h-0.65462zm-1.3092 0.98193h0.65462v1.3092h-0.65462zm2.6185-2.6185h0.65462v5.8916h-0.65462zm1.3092 0.65462h0.65462v5.8916h-0.65462zm1.3092 0.98193h0.65462v3.2731h-0.65462zm1.3092 0.98193h0.65462v1.3092h-0.65462z" fill="#6bc305" stroke="#569c04" stroke-width=".22761"/></g></g></g></svg>
