<svg width="64" height="64" version="1.1" xmlns="http://www.w3.org/2000/svg"><g transform="matrix(1.5377,0,0,1.5377,-17.139,-31.997)"><g transform="translate(1.614 -.14241)"><g transform="matrix(1.5683 0 0 1.5683 -74.196 -47.227)" fill="#9b9c9e"><g transform="matrix(1.0205 0 0 1.0275 -1.0976 -1.1942)"><g transform="matrix(1.021 0 0 1.021 -1.2954 .75842)"><g transform="matrix(.8 0 0 .8 32.489 20.34)"><g transform="translate(4.7907,-3.924)"><path transform="matrix(.65031 0 0 .65031 14.897 12.812)" d="m13.231 30.796c-1.6445 0-3 1.3555-3 3v16c0 1.6445 1.3555 3 3 3h3v5l6.668-5 4.6884-0.06045c0.55968-0.0072-1.8043-3.488 2.0267-4.8854 3.1007-1.131 12.595-0.12882 12.596-0.86444l0.020781-13.19c0.0026-1.6445-1.3555-3-3-3zm0 2h26c0.5664 0 0.99872 0.43359 1 1l0.02982 13.207c6.62e-4 0.29327-7.6686-0.80996-10.895 0.09137-3.0049 0.83944-1.5718 3.6972-1.8449 3.6975l-5.2899 0.0045-4 3v-3h-5c-0.56641 0-1-0.43359-1-1v-16c0-0.56641 0.43359-1 1-1z" fill="#9b9c9e"/><path d="m31.935 36.254c-1.4308 0-2.9239 1.4935-2.9239 2.9244v2.1013c-0.28666 0-0.68384 0.72592-0.68384 1.0126v0.51923c0 0.28666 0.38716 1.0126 0.67382 1.0126h5.8683c0.28666 0 0.67331-0.72592 0.67331-1.0126v-0.51923c0-0.28664-0.39667-1.0126-0.68333-1.0126v-2.1013c0-1.4308-1.4935-2.9244-2.9244-2.9244zm0 1.0232c0.87152 7e-3 1.9113 0.58991 1.9113 1.7365v2.2659h-1.5059v-0.90481c0.29082-0.16005 0.47148-0.46569 0.47147-0.79764 0-0.50282-0.40761-0.91043-0.91043-0.91043s-0.91043 0.40761-0.91043 0.91043c-9.3e-5 0.34481 0.19462 0.66009 0.50297 0.81441v0.88804h-1.4703v-2.1013c0-1.1466 1.0102-1.9024 1.9113-1.9011zm-2.5946 5.015h5.1898v0.51923h-5.1898z" fill="#d72a2a" stroke="#dae1e4" stroke-width=".078037"/></g></g><g transform="matrix(.8 0 0 .8 42.94 31.524)" fill="#9b9c9e"><g transform="translate(4.5494 -8.6798)" fill="#9b9c9e"><path d="m21.708 33.587c-1.0695 0-1.9509 0.88147-1.9509 1.9509v10.405c0 1.0694 0.88147 1.9509 1.9509 1.9509h1.9509v3.2515l4.3362-3.2515h10.621c1.0694 0 1.9509-0.88147 1.9509-1.9509v-10.405c0-1.0694-0.88147-1.9509-1.9509-1.9509zm0 1.3006h16.908c0.36833 0 0.65031 0.28197 0.65031 0.65031v10.405c0 0.36834-0.28197 0.65031-0.65031 0.65031h-11.055l-2.6012 1.9509v-1.9509h-3.2515c-0.36834 0-0.65031-0.28197-0.65031-0.65031v-10.405c0-0.36834 0.28197-0.65031 0.65031-0.65031z" fill="#9b9c9e" stroke-width=".65031"/></g></g><path d="m68.551 55.67h0.65462v3.2731h-0.65462zm-1.3092 0.98193h0.65462v1.3092h-0.65462zm2.6185-2.6185h0.65462v5.8916h-0.65462zm1.3092 0.65462h0.65462v5.8916h-0.65462zm1.3092 0.98193h0.65462v3.2731h-0.65462zm1.3092 0.98193h0.65462v1.3092h-0.65462z" fill="#9b9c9e" stroke="#569c04" stroke-width=".22761"/></g></g></g></g></g></svg>
