<svg id="root" width="64" height="64" version="1.1" viewBox="0 0 64 64" xml:space="preserve" xmlns="http://www.w3.org/2000/svg">
    <path x="-200.89037" y="46.758968" width="130.34483" height="130.34483" d="m6.6356 16.98h42.634l6.4609 30.01h-54.661z" fill="none" stroke="#808080" stroke-linecap="round" stroke-linejoin="round" stroke-width="2.1407" style="font-variation-settings:'wght' 500"/><g transform="matrix(.38921 0 0 .37728 80.815 -19.901)" fill="#806600" stroke="#808080">
                    <path x="-192.71796" y="54.931381" width="34" height="34" d="m-184.34 103.82h28.973l-0.95562 17.126h-30.763z" style="font-variation-settings:'wght' 500"/>
                    <path x="-192.71796" y="94.931381" width="34" height="34" d="m-187.6 124.19h31.102l-1.1063 19.826h-33.175z" style="font-variation-settings:'wght' 500"/>
                    <path x="-192.71796" y="134.93138" width="34" height="34" d="m-191.39 147.8h33.569l-1.2956 23.218h-35.997z" style="font-variation-settings:'wght' 500"/>
                    <path x="-152.71794" y="54.931377" width="34" height="34" d="m-150.25 103.82h28.973l1.1506 17.126h-30.763z" style="font-variation-settings:'wght' 500"/>
                    <path x="-152.71794" y="94.931381" width="34" height="34" d="m-151.01 124.19h31.102l1.3319 19.826h-33.175z" style="font-variation-settings:'wght' 500"/>
                    <path x="-152.71794" y="134.93138" width="34" height="34" d="m-151.89 147.8h33.569l1.5599 23.218h-35.997z" style="font-variation-settings:'wght' 500"/>
                    <path x="-112.71795" y="54.931385" width="34" height="34" d="m-116.16 103.82h28.973l3.2567 17.126h-30.763z" stroke-width="1.0005" style="font-variation-settings:'wght' 500"/>
                    <path x="-112.71795" y="94.931381" width="34" height="34" d="m-114.42 124.19h31.102l3.7702 19.826h-33.175z" style="font-variation-settings:'wght' 500"/>
                    <path x="-112.71795" y="134.93138" width="34" height="34" d="m-112.4 147.8h33.569l4.4154 23.218h-35.997z" style="font-variation-settings:'wght' 500"/>
                </g><path d="m25.944 49.805v9.1411h-5.5238v3.2631h15.88v-3.2631h-5.7273v-9.1411z" fill="#808080" style="font-variation-settings:'wght' 500"/><g fill="#d4aa00"><path d="m47.878 9.0257a8.5626 8.5626 0 0 0-3.6213 0.79043 8.5626 8.5626 0 0 0-4.4297 4.7848c0.27559 6.17e-4 0.51164 9.26e-4 1.1436 0.0034 1.7359 0.0067 5.2077 0.02019 7.0016 0.02836 1.7941 0.0082 1.9104 0.01103 2.1096 0.06637 0.1992 0.05534 0.48109 0.16317 0.71541 0.37209s0.42112 0.51883 0.52696 0.74357 0.13076 0.3643 0.49195 1.9103c0.35592 1.5234 1.0365 4.4052 1.4986 6.4546a8.5626 8.5626 0 0 0 2.3071-10.185 8.5626 8.5626 0 0 0-7.744-4.9693z" stroke-width=".10298" style="font-variation-settings:'wght' 500"/><g stroke-width=".38921"><path d="m35.651 6.8287 2.0228 3.7726a0.3771 0.3771 0 0 0 0.6025 0.08489l1.463-1.5025a0.38269 0.38269 0 0 0-0.09759-0.60651l-3.7772-1.9647a0.15899 0.15899 0 0 0-0.21349 0.21618z"/><path d="m47.895 1.899 1.2563 4.3817a0.37825 0.37825 0 0 1-0.37283 0.48239l-2.0786-0.050741a0.39443 0.39443 0 0 1-0.36856-0.50628l1.2756-4.3082a0.15004 0.15004 0 0 1 0.28809 0.00125z"/><path d="m54.982 8.5358 4.1225-2.2868a0.14035 0.14035 0 0 1 0.18902 0.19394l-2.452 4.1645a0.3783 0.3783 0 0 1-0.60658 0.06179l-1.358-1.5018a0.40879 0.40879 0 0 1 0.10492-0.63165z"/><path d="m59.206 16.745-0.0031 2.0787a0.38023 0.38023 0 0 0 0.49157 0.36414l4.1957-1.2847a0.15454 0.15454 0 0 0-0.0016-0.29604l-4.1879-1.2317a0.38586 0.38586 0 0 0-0.49472 0.36961z"/><path d="m54.227 25.825 1.2924-1.1648a0.40388 0.40388 0 0 1 0.6262 0.10885l2.0558 3.8261a0.13659 0.13659 0 0 1-0.19277 0.18043l-3.7277-2.3327a0.38845 0.38845 0 0 1-0.054-0.61783z"/></g></g>
</svg>
