<svg width="64" height="64" clip-rule="evenodd" fill-rule="evenodd" image-rendering="optimizeQuality" shape-rendering="geometricPrecision" text-rendering="geometricPrecision" version="1.1" viewBox="0 0 64 63.991" xml:space="preserve" xmlns="http://www.w3.org/2000/svg">
 <g transform="matrix(.12502 0 0 .12502 3.1211 -.0043744)" fill="#808080">
  
  <path d="m22.37 0h417.26c12.31 0 22.37 10.06 22.37 22.37v400.73c0 12.3-10.06 22.37-22.37 22.37h-32.27v19.01c0 6.2-5.06 11.27-11.26 11.27h-25.1v32.03c0 2.28-1.87 4.15-4.15 4.15h-32.33c-4.56 0-8.29-3.73-8.29-8.29v-27.89h-33.43v32.03c0 2.28-1.86 4.15-4.14 4.15h-32.34c-4.56 0-8.28-3.73-8.28-8.29v-27.89h-33.43v32.03c0 2.28-1.86 4.15-4.14 4.15h-32.34c-4.56 0-8.28-3.73-8.28-8.29v-27.89h-33.43v32.03c0 2.28-1.86 4.15-4.14 4.15h-32.34c-4.56 0-8.28-3.73-8.28-8.29v-27.89h-25.76c-6.2 0-11.26-5.07-11.26-11.27v-19.01h-32.27c-12.31 0-22.37-10.07-22.37-22.37v-400.73c0-12.31 10.06-22.37 22.37-22.37zm61.36 103.62h294.54c3.34 0 6.38 1.38 8.57 3.57s3.56 5.23 3.56 8.57v53.77c0 3.33-1.37 6.37-3.56 8.56-2.2 2.2-5.23 3.57-8.57 3.57h-294.54c-3.34 0-6.38-1.37-8.57-3.57-2.19-2.19-3.56-5.23-3.56-8.56v-53.77c0-3.34 1.36-6.37 3.56-8.57 2.2-2.21 5.23-3.57 8.57-3.57zm159 210.98h15.79c2.29 0.01 4.15 1.87 4.15 4.16 0 0.83-0.25 1.63-0.7 2.32l-37.64 64.27c-0.75 1.23-2.09 1.98-3.53 1.98-2.29 0-4.15-1.86-4.15-4.14 0-0.28 0.02-0.55 0.08-0.81l5.55-39.45-18.73 0.32h-0.08c-2.25 0-4.09-1.81-4.13-4.06v-0.02c0-0.75 0.2-1.5 0.58-2.15l37.06-64.26c0.75-1.24 2.1-2 3.55-2 2.29 0 4.15 1.85 4.15 4.15 0 0.18-0.02 0.36-0.04 0.54zm151.34-255.93c5.79 0 10.49 4.95 10.49 11.06 0 6.1-4.7 11.05-10.49 11.05-5.8 0-10.5-4.95-10.5-11.05 0-6.11 4.7-11.06 10.5-11.06zm-326.13 0c5.8 0 10.5 4.95 10.5 11.06 0 6.1-4.7 11.05-10.5 11.05s-10.5-4.95-10.5-11.05c0-6.11 4.7-11.06 10.5-11.06zm0 307.96c5.8 0 10.5 4.96 10.5 11.06 0 6.11-4.7 11.06-10.5 11.06s-10.5-4.95-10.5-11.06c0-6.1 4.7-11.06 10.5-11.06zm326.13 0c5.79 0 10.49 4.96 10.49 11.06 0 6.11-4.7 11.06-10.49 11.06-5.8 0-10.5-4.95-10.5-11.06 0-6.1 4.7-11.06 10.5-11.06zm-38.94-206.03c-3.07 0-5.53-0.96-7.39-2.88-1.85-1.92-2.77-4.45-2.77-7.59v-14.98c0-3.15 0.92-5.67 2.77-7.59 1.86-1.92 4.32-2.88 7.39-2.88 3.08 0 5.55 0.96 7.4 2.88s2.78 4.44 2.78 7.59v14.98c0 3.14-0.93 5.67-2.78 7.59s-4.32 2.88-7.4 2.88zm0-7.1c0.6 0 1.08-0.26 1.42-0.79 0.35-0.53 0.52-1.22 0.52-2.08v-15.98c0-0.86-0.17-1.56-0.52-2.09-0.34-0.52-0.82-0.79-1.42-0.79-0.59 0-1.06 0.27-1.41 0.79-0.34 0.53-0.52 1.23-0.52 2.09v15.98c0 0.86 0.18 1.55 0.52 2.08 0.35 0.53 0.82 0.79 1.41 0.79zm-61.12 7.1c-3.07 0-5.54-0.96-7.39-2.88s-2.78-4.45-2.78-7.59v-14.98c0-3.15 0.93-5.67 2.78-7.59s4.32-2.88 7.39-2.88c3.08 0 5.55 0.96 7.4 2.88s2.77 4.44 2.77 7.59v14.98c0 3.14-0.92 5.67-2.77 7.59s-4.32 2.88-7.4 2.88zm0-7.1c0.6 0 1.07-0.26 1.42-0.79s0.52-1.22 0.52-2.08v-15.98c0-0.86-0.17-1.56-0.52-2.09-0.35-0.52-0.82-0.79-1.42-0.79-0.59 0-1.07 0.27-1.41 0.79-0.35 0.53-0.52 1.23-0.52 2.09v15.98c0 0.86 0.17 1.55 0.52 2.08 0.34 0.53 0.82 0.79 1.41 0.79zm-63.81 7.1c-3.07 0-5.54-0.96-7.39-2.88s-2.77-4.45-2.77-7.59v-14.98c0-3.15 0.92-5.67 2.77-7.59s4.32-2.88 7.39-2.88c3.08 0 5.54 0.96 7.4 2.88 1.85 1.92 2.77 4.44 2.77 7.59v14.98c0 3.14-0.92 5.67-2.77 7.59-1.86 1.92-4.32 2.88-7.4 2.88zm0-7.1c0.6 0 1.07-0.26 1.42-0.79s0.52-1.22 0.52-2.08v-15.98c0-0.86-0.17-1.56-0.52-2.09-0.35-0.52-0.82-0.79-1.42-0.79-0.59 0-1.06 0.27-1.41 0.79-0.35 0.53-0.52 1.23-0.52 2.09v15.98c0 0.86 0.17 1.55 0.52 2.08s0.82 0.79 1.41 0.79zm-61.33 7.1c-3.07 0-5.54-0.96-7.39-2.88s-2.77-4.45-2.77-7.59v-14.98c0-3.15 0.92-5.67 2.77-7.59s4.32-2.88 7.39-2.88c3.08 0 5.55 0.96 7.4 2.88s2.77 4.44 2.77 7.59v14.98c0 3.14-0.92 5.67-2.77 7.59s-4.32 2.88-7.4 2.88zm0-7.1c0.6 0 1.07-0.26 1.42-0.79s0.52-1.22 0.52-2.08v-15.98c0-0.86-0.17-1.56-0.52-2.09-0.35-0.52-0.82-0.79-1.42-0.79-0.59 0-1.06 0.27-1.41 0.79-0.35 0.53-0.52 1.23-0.52 2.09v15.98c0 0.86 0.17 1.55 0.52 2.08s0.82 0.79 1.41 0.79zm-61.16 7.1c-3.08 0-5.54-0.96-7.39-2.88s-2.78-4.45-2.78-7.59v-14.98c0-3.15 0.93-5.67 2.78-7.59s4.31-2.88 7.39-2.88c3.07 0 5.54 0.96 7.39 2.88s2.78 4.44 2.78 7.59v14.98c0 3.14-0.93 5.67-2.78 7.59s-4.32 2.88-7.39 2.88zm0-7.1c0.6 0 1.07-0.26 1.41-0.79 0.35-0.53 0.53-1.22 0.53-2.08v-15.98c0-0.86-0.18-1.56-0.53-2.09-0.34-0.52-0.81-0.79-1.41-0.79s-1.07 0.27-1.41 0.79c-0.35 0.53-0.52 1.23-0.52 2.09v15.98c0 0.86 0.17 1.55 0.52 2.08 0.34 0.53 0.81 0.79 1.41 0.79zm58.85 102.29c-4.25 0-7.69-3.45-7.69-7.69s3.44-7.68 7.69-7.68h128.88c4.25 0 7.69 3.44 7.69 7.68s-3.44 7.69-7.69 7.69zm-50.58-38.85c-4.24 0-7.69-3.44-7.69-7.68s3.45-7.69 7.69-7.69h230.04c4.24 0 7.68 3.45 7.68 7.69s-3.44 7.68-7.68 7.68zm212.57-103.71v58.82h49.72c0.69 0 1.32-0.29 1.78-0.75 0.46-0.45 0.75-1.09 0.75-1.77v-53.77c0-0.69-0.29-1.33-0.75-1.79-0.45-0.45-1.09-0.74-1.78-0.74zm-9.61 58.82v-58.82h-52.26v58.82zm-61.87 0v-58.82h-52.14v58.82zm-61.75 0v-58.82h-52.3v58.82zm-61.91 0v-58.82h-49.68c-0.7 0-1.33 0.29-1.79 0.74-0.45 0.46-0.74 1.09-0.74 1.79v53.77c0 0.69 0.29 1.32 0.74 1.77 0.46 0.46 1.1 0.75 1.79 0.75zm-74.08-133.14h343.34c12.31 0 22.37 10.07 22.37 22.37v324.85c0 12.3-10.07 22.37-22.37 22.37h-343.34c-12.3 0-22.37-10.06-22.37-22.37v-324.85c0-12.31 10.06-22.37 22.37-22.37z" fill="#808080"/>
 </g>
</svg>
