<svg width="64" height="64" version="1.1" viewBox="0 0 16.933 16.933" xmlns="http://www.w3.org/2000/svg">
 <g transform="matrix(.032564 0 0 .032564 -6.5892 5.8177)">
  <g stroke="#f00">
   <path transform="scale(.26458)" d="m1769.5-662.06c-22.234 0-41.521 12.124-51.674 30.141-24.203 7.4638-41.695 29.944-41.695 56.66v760.33c0 32.85 26.446 59.297 59.297 59.297h23.773c32.85 0 59.297-26.447 59.297-59.297v-724.67h71.779c32.851 0 59.297-26.446 59.297-59.297v-3.8652c0-32.851-26.446-59.297-59.297-59.297z" fill="#ccd1d9" stroke-width=".0080994"/>
   <rect transform="rotate(-.12545)" x="318.03" y="215.91" width="288.4" height="118.62" ry="17.702" fill="#656d78" stroke-width=".0022796"/>
   <rect x="321.05" y="63.762" width="282.67" height="154.91" fill="#5d9cec" stroke-width=".0020078"/>
  </g>
  <path d="m337.95 340.33c-15.983-2.7563-29.066-16.925-31.669-34.298-0.69789-4.6575-0.92018-22.314-0.6437-51.125l0.42235-44.011 15.703-163.59c8.6366-89.973 16.007-164.32 16.379-165.23 1.5366-3.7297 4.4654-3.9479 53.007-3.9479h47.441l0.45196-15.495c0.56222-19.275 1.7964-23.345 9.4977-31.319 8.4485-8.7481 10.829-9.3618 38.191-9.8459 24.664-0.43637 27.501-8e-3 29.462 4.4493 1.4471 3.2886 1.4622 27.942 0.0191 31.222-1.7124 3.8916-4.9261 4.7321-18.091 4.7321h-12.22v16.257h47.545c48.65 0 51.574 0.21739 53.112 3.9479 0.37199 0.90227 7.7416 75.254 16.377 165.23l15.701 163.59 0.42431 44.011c0.27787 28.821 0.0564 46.466-0.64173 51.125-2.6758 17.857-15.62 31.517-32.564 34.364-7.7526 1.3026-240.33 1.2409-247.9-0.0657zm254.47-18.71c2.9754-1.9049 5.9333-4.9671 7.773-8.0472l2.9698-4.9721 0.27758-40.47 0.27759-40.47h-282.67v39.151c0 42.239 0.0355 42.566 5.3999 49.849 1.3174 1.7885 4.7122 4.4474 7.544 5.9085l5.1486 2.6566 248.48-0.53091zm-137.97-13.998c-8.8745-2.5981-16.924-9.7858-20.707-18.49-3.0748-7.0752-3.076-18.321-3e-3 -25.402 2.8854-6.6475 10.001-14.048 16.252-16.903 7.5576-3.4511 17.95-3.276 25.257 0.42562 6.5014 3.2936 12.945 10.143 15.812 16.806 3.1339 7.2845 2.8794 18.505-0.58617 25.839-3.0805 6.5195-9.7656 13.311-15.843 16.094-5.5679 2.5503-14.557 3.2755-20.183 1.6284zm15.745-17.085c10.429-6.0694 10.314-22.208-0.20277-28.328-7.7414-4.5052-18.188-1.2927-21.861 6.7228-2.1591 4.7113-1.6409 13.156 1.0366 16.894 4.7774 6.6694 14.081 8.754 21.027 4.7115zm-106.57-8.356c-1.9088-1.7001-2.6714-3.3413-2.6714-5.7492 0-3.4871 3.8336-8.1285 6.7139-8.1285 2.864 0 6.281 2.4056 7.4037 5.2121 1.4984 3.7458-0.14627 8.2678-3.5997 9.897-3.5042 1.6532-4.8436 1.443-7.8465-1.2315zm31.401 0c-1.9088-1.7001-2.6714-3.3413-2.6714-5.7492 0-3.4871 3.8336-8.1285 6.7139-8.1285 7.7261 0 11.016 11.194 4.3409 14.768-3.8032 2.0365-5.2721 1.8804-8.3834-0.89074zm125.94 0.3529c-2.0942-1.7057-2.683-3.0449-2.683-6.1021 0-7.418 8.4481-10.644 13.002-4.9647 5.6315 7.0233-3.3961 16.705-10.319 11.067zm33.624 1.3268c-5.1436-2.0322-6.7812-9.4212-2.895-13.063 4.7753-4.4748 12.708-0.9579 12.708 5.6341 0 5.0206-5.4551 9.1504-9.8127 7.4288zm48.082-75.453c0-5.0922-12.664-136.8-13.325-138.59-0.95268-2.5707-1.7916-2.1188-6.98 3.7595-8.6847 9.8394-11.097 9.8854-19.957 0.38066l-5.8996-6.3287-5.227 5.7241c-9.2179 10.095-11.368 10.159-20.274 0.60456l-5.8996-6.3287-5.227 5.7241c-9.2184 10.095-11.375 10.159-20.258 0.60456l-5.8835-6.3287-6.249 6.8584c-5.1742 5.6789-6.7868 6.8584-9.3761 6.8584-2.5826 0-4.2274-1.1944-9.4447-6.8584l-6.3175-6.8584-6.2556 6.8584c-5.1784 5.6775-6.7941 6.8584-9.3828 6.8584-2.5831 0-4.2255-1.1933-9.4396-6.8584l-6.3125-6.8584-5.8852 6.3287c-8.8853 9.5549-11.041 9.4905-20.26-0.60456l-5.227-5.7241-5.8996 6.3287c-8.9063 9.5541-11.056 9.49-20.274-0.60456l-5.227-5.7241-5.8996 6.3287c-8.8603 9.5048-11.273 9.4588-19.957-0.38066-5.2086-5.9012-6.0258-6.3343-6.9985-3.7094-0.66701 1.7998-13.306 133.46-13.306 138.61v2.9273h280.64zm-244.64-151.81c8.6854-9.8402 11.107-9.8864 19.936-0.38066l5.8785 6.3287 5.8785-6.3287c8.8755-9.5552 11.034-9.4907 20.253 0.60456l5.227 5.7241 5.8996-6.3287c3.2448-3.4808 6.96-6.6043 8.2562-6.9411 2.5417-0.66054 7.9488 1.7103 8.7801 3.8498 0.276 0.7103 0.53667-34.715 0.57928-78.724l0.0775-80.015h-87.213l-0.57308 4.3183c-0.31519 2.375-3.4243 34.953-6.9092 72.395-3.4849 37.442-6.5956 70.161-6.9128 72.708-0.53409 4.2896-0.38377 4.723 2.0336 5.8635 1.4357 0.67734 4.8216 3.7368 7.5243 6.7988 2.7026 3.062 5.2669 5.5673 5.6982 5.5673 0.43138 0 2.945-2.448 5.5859-5.44zm157 0c8.6854-9.8402 11.107-9.8864 19.936-0.38066l5.8785 6.3287 5.8785-6.3287c8.8755-9.5552 11.034-9.4907 20.253 0.60456l5.227 5.7241 5.8341-6.2574c3.2087-3.4416 6.7866-6.5704 7.9507-6.953 1.8915-0.62162 2.0539-1.1991 1.5267-5.4273-0.32449-2.6024-3.4412-35.366-6.9261-72.808-3.4848-37.442-6.594-70.02-6.9092-72.395l-0.57308-4.3183h-87.213v79.761c0 79.419 8e-3 79.752 1.9376 77.755 2.6148-2.7075 6.2317-3.5125 8.9682-1.996 1.2414 0.68796 4.4179 3.6988 7.0588 6.6908 2.6409 2.992 5.1545 5.44 5.5859 5.44 0.43138 0 2.945-2.448 5.5859-5.44zm-56.418-6.3488c3.4231-1.8329 6.8421-1.2465 9.6433 1.654 1.9292 1.9977 1.9376 1.6638 1.9376-77.755v-79.761h-15.7l0.0774 80.015c0.0426 44.008 0.30328 79.434 0.57928 78.724s1.8342-2.0049 3.4627-2.8769zm11.581-184.77c0-13.632 0.8118-16.96 4.5701-18.733 1.3435-0.63383 7.7452-1.1281 14.611-1.1281h12.22v-8.1285h-17.702c-15.805 0-18.117 0.21924-21.575 2.0458-6.5286 3.4487-7.8243 7.478-7.8243 24.331v14.265h15.7zm59.857-4.8704c-3.7173-2.0203-5.33-6.1786-3.7333-9.6266 2.0724-4.4754 5.0951-5.4639 15.729-5.1435 8.3034 0.25015 9.8214 0.57692 11.693 2.5172 1.2919 1.3389 2.1514 3.4926 2.1514 5.3908 0 1.8982-0.8595 4.0519-2.1514 5.3908-1.8721 1.9402-3.3901 2.267-11.693 2.5172-6.4624 0.19469-10.334-0.14284-11.995-1.0458zm0-24.386c-3.7173-2.0203-5.33-6.1786-3.7333-9.6266 2.0724-4.4754 5.0951-5.4639 15.729-5.1435 8.3034 0.25015 9.8214 0.57693 11.693 2.5172 1.2919 1.3389 2.1514 3.4926 2.1514 5.3908s-0.8595 4.0519-2.1514 5.3908c-1.8721 1.9402-3.3901 2.267-11.693 2.5172-6.4624 0.19469-10.334-0.14284-11.995-1.0458z" stroke-width=".99852"/>
 </g>
</svg>
