<svg width="64" height="64" version="1.1" xmlns="http://www.w3.org/2000/svg"><g transform="matrix(.075085 0 0 .075085 28.787 40.462)" stroke-width=".99887"></g><g transform="matrix(1.5377,0,0,1.5377,-17.139,-31.997)"><g transform="translate(-122.25,25.222)"><g transform="matrix(1.8616,0,0,1.8616,85.544,-56.091)"><g transform="translate(4.7907,-3.924)"><path d="m23.008 33.43c-1.1489 0-2.0959 0.94699-2.0959 2.0959v11.178c0 1.1489 0.94699 2.0959 2.0959 2.0959h2.0959v3.4932l4.6586-3.4932h11.41c1.1489 0 2.0959-0.94699 2.0959-2.0959v-11.178c0-1.1489-0.94699-2.0959-2.0959-2.0959zm0 1.3973h18.165c0.39571 0 0.69865 0.30293 0.69865 0.69865v11.178c0 0.39572-0.30293 0.69865-0.69865 0.69865h-11.877l-2.7946 2.0959v-2.0959h-3.4932c-0.39572 0-0.69865-0.30293-0.69865-0.69865v-11.178c0-0.39572 0.30293-0.69865 0.69865-0.69865z" fill="#9b9c9e" stroke-width=".69865"/><path d="m32.145 36.941c-1.5372 0-3.1412 1.6046-3.1412 3.1418v2.2575c-0.30797 0-0.73467 0.77988-0.73467 1.0878v0.55782c0 0.30797 0.41594 1.0878 0.72391 1.0878h6.3045c0.30796 0 0.72336-0.77988 0.72336-1.0878v-0.55782c0-0.30794-0.42616-1.0878-0.73412-1.0878v-2.2575c0-1.5372-1.6046-3.1418-3.1418-3.1418zm0 1.0993c0.9363 0.0075 2.0534 0.63376 2.0534 1.8656v2.4343h-1.6178v-0.97207c0.31244-0.17194 0.50653-0.50031 0.50652-0.85693 0-0.54019-0.43791-0.97811-0.97811-0.97811s-0.9781 0.43791-0.9781 0.97811c-1e-4 0.37044 0.20909 0.70916 0.54036 0.87495v0.95406h-1.5796v-2.2575c0-1.2318 1.0853-2.0438 2.0534-2.0424zm-2.7875 5.3878h5.5755v0.55782h-5.5755z" fill="#d72a2a" stroke="#dae1e4" stroke-width=".083838"/></g></g></g></g></svg>
