<svg width="64" height="64" version="1.1" xmlns="http://www.w3.org/2000/svg"><g transform="matrix(1.5377,0,0,1.5377,-17.139,-31.997)"><g transform="translate(1.614 -.14241)"><path transform="matrix(.65032 0 0 .65032 9.5319 20.951)" d="m13.607 0c-2.75 0-5 2.2501-5 5v53.998c0 2.75 2.2501 5 5 5h29.998c2.7499 0 5-2.25 5-5v-10.076h-2v3.0762h-35.998v-41.998h35.998v38.922h2v-43.922c0-2.7499-2.2501-5-5-5zm0 2h29.998c1.668 0 3 1.332 3 3v3h-35.998v-3c0-1.668 1.332-3 3-3zm6.9492 2c-0.55077 0-1 0.44923-1 1-0.0039 0.55077 0.44532 1 0.99609 1 0.26562 0.0039 0.51954-0.10157 0.70703-0.28906 0.1875-0.1875 0.29688-0.44531 0.29688-0.71094 0-0.55077-0.44923-0.99609-1-1zm4.0508 0c-0.35937-0.0039-0.69531 0.1836-0.87891 0.49609-0.17969 0.31249-0.17969 0.69533 0 1.0078 0.18359 0.31249 0.51953 0.5 0.87891 0.49609h8c0.35937 0.0039 0.69531-0.1836 0.87891-0.49609 0.17969-0.31249 0.17969-0.69533 0-1.0078-0.18359-0.31249-0.51953-0.5-0.87891-0.49609zm-14 49.998h35.998v5c0 1.668-1.332 3-3 3h-29.998c-1.668 0-3-1.332-3-3zm18 2c-1.1055 0-2 0.89455-2 2s0.89455 2 2 2 2-0.89455 2-2-0.89455-2-2-2z" fill="#9b9c9e" stroke-width=".99998"/><path d="m28.065 32.932c-2.8482 0-5.8205 2.973-5.8205 5.8215v4.183c-0.57064 0-1.3613 1.4451-1.3613 2.0157v1.0336c0 0.57064 0.7707 2.0157 1.3413 2.0157h11.682c0.57064 0 1.3403-1.4451 1.3403-2.0157v-1.0336c0-0.5706-0.78963-2.0157-1.3603-2.0157v-4.183c0-2.8482-2.973-5.8215-5.8215-5.8215zm0 2.0368c1.7349 0.01382 3.8047 1.1743 3.8047 3.4568v4.5106h-2.9977v-1.8012c0.57892-0.3186 0.93856-0.92703 0.93854-1.5878 0-1.0009-0.81141-1.8124-1.8124-1.8124-1.0009 0-1.8124 0.81141-1.8124 1.8124-1.86e-4 0.6864 0.38742 1.314 1.0012 1.6212v1.7678h-2.9269v-4.183c0-2.2825 2.011-3.787 3.8047-3.7844zm-5.165 9.9831h10.331v1.0336h-10.331z" fill="#9b9c9e" stroke="#dae1e4" stroke-width=".15534"/><rect transform="matrix(-.70263 .71155 -.70263 -.71155 0 0)" x="-1.8887" y="-49.492" width="23.033" height="2.0838" fill="#008000" stroke="#fff" stroke-linejoin="bevel" stroke-width=".65035"/></g></g></svg>
