<svg width="64" height="64" version="1.1" xmlns="http://www.w3.org/2000/svg"><g transform="matrix(1.5377,0,0,1.5377,-17.139,-31.997)"><g transform="translate(1.614 -.14241)"><g transform="matrix(2.2701 0 0 2.2701 -31.58 -52.05)"><path d="m28.065 32.932c-2.8482 0-5.8205 2.973-5.8205 5.8215v4.183c-0.57064 0-1.3613 1.4451-1.3613 2.0157v1.0336c0 0.57064 0.7707 2.0157 1.3413 2.0157h11.682c0.57064 0 1.3403-1.4451 1.3403-2.0157v-1.0336c0-0.5706-0.78963-2.0157-1.3603-2.0157v-4.183c0-2.8482-2.973-5.8215-5.8215-5.8215zm0 2.0368c1.7349 0.01382 3.8047 1.1743 3.8047 3.4568v4.5106h-2.9977v-1.8012c0.57892-0.3186 0.93856-0.92703 0.93854-1.5878 0-1.0009-0.81141-1.8124-1.8124-1.8124-1.0009 0-1.8124 0.81141-1.8124 1.8124-1.86e-4 0.6864 0.38742 1.314 1.0012 1.6212v1.7678h-2.9269v-4.183c0-2.2825 2.011-3.787 3.8047-3.7844zm-5.165 9.9831h10.331v1.0336h-10.331z" fill="#9b9c9e" stroke="#dae1e4" stroke-width=".15534"/><rect transform="matrix(-.70263 .71155 -.70263 -.71155 0 0)" x="-1.8887" y="-49.492" width="23.033" height="2.0838" fill="#008000" stroke="#fff" stroke-linejoin="bevel" stroke-width=".65035"/></g></g></g></svg>
